# xmcd
#
# Track frame offsets:
#	150
#	25772
#	38812
#	59847
#	83925
#	106210
#	131907
#	144675
#	161032
#	179255
#	197802
#	219552
#
# Disc length: 3356 seconds
# Revision: 0
# Processed by: cddbd v1.5.2PL0 Copyright (c) Steve Scherf et al.
# Submitted via: dBpowerAMP V12.0
#
DISCID=b40d1a0c
DTITLE=Chris Webster - Drive
DYEAR=1999
DGENRE=Country
TTITLE0=Ball and Chain
TTITLE1=Tumble into Love
TTITLE2=Candybars and Freedom
TTITLE3=I'm Driving
TTITLE4=Shake On It
TTITLE5=Turning of the Wheel
TTITLE6=Real Emotional Girl
TTITLE7=No More Excuses
TTITLE8=Circles in the Wind
TTITLE9=Run Away to the Circus
TTITLE10=If I Could Have You
TTITLE11=Angel Choir
EXTD=
EXTT0=
EXTT1=
EXTT2=
EXTT3=
EXTT4=
EXTT5=
EXTT6=
EXTT7=
EXTT8=
EXTT9=
EXTT10=
EXTT11=
PLAYORDER=
